<?xml version="1.0" encoding="utf-8"?>
<!-- Generator: Adobe Illustrator 19.2.1, SVG Export Plug-In . SVG Version: 6.00 Build 0)  -->
<svg version="1.1"
	 id="katman_1" xmlns:cc="http://creativecommons.org/ns#" xmlns:dc="http://purl.org/dc/elements/1.1/" xmlns:rdf="http://www.w3.org/1999/02/22-rdf-syntax-ns#"
	 xmlns="http://www.w3.org/2000/svg" xmlns:xlink="http://www.w3.org/1999/xlink" x="0px" y="0px" viewBox="0 0 128 128"
	 style="enable-background:new 0 0 128 128;" xml:space="preserve">
<style type="text/css">
	.st0{fill:#002857;}
	.st1{display:none;fill:#FFFFFF;}
	.st2{fill:#FFFFFF;}
</style>
<path class="st0" d="M20,0h88c11,0,20,9,20,20v88c0,11-9,20-20,20H20c-11,0-20-9-20-20V20C0,9,9,0,20,0z"/>
<path class="st1" d="M58.3,29.1c-8.9,0-16.1,7.2-16.1,16.1c0,3.7,1.2,7.1,3.3,9.8c4.5-5.2,11.1-8.5,18.5-8.5c3.6,0,7,0.8,10.1,2.2
	c0.3-1.1,0.4-2.3,0.4-3.5C74.5,36.3,67.3,29.1,58.3,29.1L58.3,29.1z M37.2,36.6c-4.7,0-8.4,3.8-8.4,8.4c0,1.5,0.4,2.9,1.1,4.1
	c2.8-1.6,6.1-2.5,9.5-2.5c0.3,0,0.7,0,1,0c0-0.5-0.1-0.9-0.1-1.4c0-2.6,0.6-5.1,1.6-7.3C40.6,37.1,39,36.6,37.2,36.6L37.2,36.6z
	 M77.1,42.4c-0.3,0-0.7,0-1,0.1c0.1,0.9,0.3,1.9,0.3,2.8c0,1.5-0.2,2.9-0.5,4.3c4.1,2.3,7.5,5.6,9.7,9.7c2.3-1.2,4.9-2,7.6-2.2
	C92.4,48.9,85.5,42.4,77.1,42.4L77.1,42.4z M64,48.4c-12.5,0-22.6,10.1-22.6,22.6c0,12.5,10.1,22.6,22.6,22.6S86.6,83.5,86.6,71
	C86.6,58.5,76.5,48.4,64,48.4z M39.4,48.5c-9.7,0-17.5,7.8-17.5,17.5c0,5.7,2.7,10.8,6.9,14c1.8-3.4,5.3-5.8,9.5-5.8
	c0.5,0,1,0.1,1.5,0.1c-0.2-1.1-0.2-2.2-0.2-3.4c0-5.4,1.8-10.5,4.8-14.5c-1.8-2.3-3.1-5-3.6-7.9C40.3,48.5,39.8,48.5,39.4,48.5
	L39.4,48.5z M94.4,58.9c-2.9,0-5.7,0.8-8.1,2c1.4,3.1,2.2,6.5,2.2,10c0,6.7-2.7,12.8-7.1,17.2c3.2,3.6,7.9,5.8,13,5.8
	c9.7,0,17.5-7.8,17.5-17.5C111.9,66.8,104.1,59,94.4,58.9L94.4,58.9z M20.2,61.3C11.2,61.3,4,68.4,4,77.4c0,8.9,7.2,16.2,16.2,16.2
	c3.4,0,6.5-1.1,9.2-2.8c-1.1-1.7-1.7-3.7-1.7-5.8c0-1.1,0.2-2.2,0.5-3.2c-4.9-3.5-8-9.2-8-15.7c0-1.6,0.2-3.2,0.6-4.7
	C20.5,61.3,20.3,61.3,20.2,61.3L20.2,61.3z M115.1,75.1c-0.5,0-0.9,0.1-1.4,0.1c0,0.4,0,0.8,0,1.2c0,5.2-2,9.8-5.3,13.3
	c1.6,1.9,4,3.1,6.7,3.1c4.9,0,8.9-3.9,8.9-8.8C124,79.1,120,75.1,115.1,75.1z M38.3,76.1c-4.9,0-8.8,3.9-8.8,8.8
	c0,4.9,3.9,8.9,8.8,8.9c3.8,0,6.9-2.3,8.2-5.6c-3.2-3.2-5.4-7.3-6.4-11.9C39.5,76.1,38.9,76.1,38.3,76.1L38.3,76.1z"/>
<path class="st2" d="M78.1,105.3c0.4,0.2,1,0.5,1.7,0.9l10.7,6.2l24.7-14.3l0-14.3c0-0.4,0-1,0-1.9l0-12.4L91.6,55.9L65.8,70.8
	c0,8.6,0,11.5,0,12.5l0,0l0,14.9L78.1,105.3L78.1,105.3z"/>
<path class="st2" d="M51.7,64L51.7,64L37,55.5l-24.2,14l0,14.3l0,14.3l12.4,7.1l0,0c0.4,0.2,1,0.5,1.7,0.9l10.7,6.2l24.6-14.2V70
	C56,66.5,53.1,64.8,51.7,64z"/>
<path class="st2" d="M89.4,24.4L64.6,10.1L39.9,24.4l0,14.3l0,13.7L64,66.4l25.4-14.7l0-12.9c0-0.4,0-1,0-1.9L89.4,24.4z"/>
</svg>
