<?xml version="1.0" encoding="utf-8"?>
<!-- Generator: Adobe Illustrator 19.2.1, SVG Export Plug-In . SVG Version: 6.00 Build 0)  -->
<svg version="1.1"
	 id="katman_1" xmlns:cc="http://creativecommons.org/ns#" xmlns:dc="http://purl.org/dc/elements/1.1/" xmlns:rdf="http://www.w3.org/1999/02/22-rdf-syntax-ns#"
	 xmlns="http://www.w3.org/2000/svg" xmlns:xlink="http://www.w3.org/1999/xlink" x="0px" y="0px" viewBox="0 0 32 32"
	 style="enable-background:new 0 0 32 32;" xml:space="preserve">
<style type="text/css">
	.st0{fill:#002855;}
	.st1{display:none;fill:#FFFFFF;}
	.st2{fill:#FFFFFF;}
</style>
<path class="st0" d="M5,0h22c2.8,0,5,2.2,5,5v22c0,2.8-2.2,5-5,5H5c-2.8,0-5-2.2-5-5V5C0,2.2,2.2,0,5,0z"/>
<path class="st1" d="M14.6,7.3c-2.2,0-4,1.8-4,4c0,0.9,0.3,1.8,0.8,2.4c1.1-1.3,2.8-2.1,4.6-2.1c0.9,0,1.8,0.2,2.5,0.6
	c0.1-0.3,0.1-0.6,0.1-0.9C18.6,9.1,16.8,7.3,14.6,7.3L14.6,7.3z M9.3,9.1c-1.2,0-2.1,0.9-2.1,2.1c0,0.4,0.1,0.7,0.3,1
	c0.7-0.4,1.5-0.6,2.4-0.6c0.1,0,0.2,0,0.2,0c0-0.1,0-0.2,0-0.4c0-0.6,0.1-1.3,0.4-1.8C10.1,9.3,9.7,9.1,9.3,9.1L9.3,9.1z M19.3,10.6
	c-0.1,0-0.2,0-0.3,0c0,0.2,0.1,0.5,0.1,0.7c0,0.4,0,0.7-0.1,1.1c1,0.6,1.9,1.4,2.4,2.4c0.6-0.3,1.2-0.5,1.9-0.5
	C23.1,12.2,21.4,10.6,19.3,10.6L19.3,10.6z M16,12.1c-3.1,0-5.7,2.5-5.7,5.7c0,3.1,2.5,5.7,5.7,5.7s5.7-2.5,5.7-5.7
	C21.6,14.6,19.1,12.1,16,12.1z M9.9,12.1c-2.4,0-4.4,2-4.4,4.4c0,1.4,0.7,2.7,1.7,3.5c0.4-0.9,1.3-1.4,2.4-1.4c0.1,0,0.2,0,0.4,0
	c0-0.3-0.1-0.6-0.1-0.8c0-1.4,0.4-2.6,1.2-3.6c-0.5-0.6-0.8-1.2-0.9-2C10.1,12.1,10,12.1,9.9,12.1L9.9,12.1z M23.6,14.7
	c-0.7,0-1.4,0.2-2,0.5c0.3,0.8,0.5,1.6,0.5,2.5c0,1.7-0.7,3.2-1.8,4.3c0.8,0.9,2,1.4,3.3,1.4c2.4,0,4.4-2,4.4-4.4
	C28,16.7,26,14.7,23.6,14.7L23.6,14.7z M5,15.3c-2.2,0-4,1.8-4,4s1.8,4,4,4c0.8,0,1.6-0.3,2.3-0.7c-0.3-0.4-0.4-0.9-0.4-1.4
	c0-0.3,0-0.5,0.1-0.8c-1.2-0.9-2-2.3-2-3.9c0-0.4,0.1-0.8,0.2-1.2C5.1,15.3,5.1,15.3,5,15.3L5,15.3z M28.8,18.8c-0.1,0-0.2,0-0.3,0
	c0,0.1,0,0.2,0,0.3c0,1.3-0.5,2.5-1.3,3.3c0.4,0.5,1,0.8,1.7,0.8c1.2,0,2.2-1,2.2-2.2S30,18.8,28.8,18.8L28.8,18.8z M9.6,19
	c-1.2,0-2.2,1-2.2,2.2s1,2.2,2.2,2.2c0.9,0,1.7-0.6,2.1-1.4c-0.8-0.8-1.4-1.8-1.6-3C9.9,19,9.7,19,9.6,19L9.6,19z"/>
<path class="st2" d="M19.6,26.1c0.1,0.1,0.2,0.1,0.4,0.2l2.6,1.5l5.9-3.4l0-3.4c0-0.1,0-0.2,0-0.5l0-3l-5.7-3.3l-6.2,3.6
	c0,2.1,0,2.8,0,3l0,0l0,3.6L19.6,26.1L19.6,26.1z"/>
<path class="st2" d="M13.3,16.2L13.3,16.2l-3.5-2l-5.8,3.4l0,3.4l0,3.4l3,1.7l0,0c0.1,0.1,0.2,0.1,0.4,0.2l2.6,1.5l5.9-3.4v-6.8
	C14.3,16.7,13.6,16.3,13.3,16.2z"/>
<path class="st2" d="M22.3,6.7l-5.9-3.4l-5.9,3.4l0,3.4l0,3.3l5.8,3.3l6.1-3.5l0-3.1c0-0.1,0-0.2,0-0.5L22.3,6.7z"/>
</svg>
