<?xml version="1.0" encoding="utf-8"?>
<!-- Generator: Adobe Illustrator 19.2.1, SVG Export Plug-In . SVG Version: 6.00 Build 0)  -->
<svg version="1.1"
	 id="katman_1" xmlns:cc="http://creativecommons.org/ns#" xmlns:dc="http://purl.org/dc/elements/1.1/" xmlns:rdf="http://www.w3.org/1999/02/22-rdf-syntax-ns#"
	 xmlns="http://www.w3.org/2000/svg" xmlns:xlink="http://www.w3.org/1999/xlink" x="0px" y="0px" viewBox="0 0 411 120"
	 style="enable-background:new 0 0 411 120;" xml:space="preserve">
<style type="text/css">
	.st0{fill:#FFFFFF;}
	.st1{font-family:'Novecentowide-Book';}
	.st2{font-size:54.8915px;}
	.st3{font-family:'Novecentowide-Medium';}
</style>
<path class="st0" d="M75.5,99.2c0.4,0.2,0.9,0.5,1.6,0.9l10,5.8l23.2-13.4l0-13.4c0-0.4,0-0.9,0-1.8l0-11.6L88.2,53L64,66.9
	c0,8.1,0,10.8,0,11.7l0,0l0,13.9L75.5,99.2L75.5,99.2z"/>
<path class="st0" d="M50.7,60.6L50.7,60.6l-13.8-8L14.2,65.7l0,13.4l0,13.4l11.6,6.7l0,0c0.4,0.2,0.9,0.5,1.6,0.9l10,5.8l23.1-13.3
	V66.2C54.7,62.9,52,61.3,50.7,60.6z"/>
<path class="st0" d="M86,23.5L62.9,10.1L39.7,23.5l0,13.4l0,12.9l22.6,13L86.1,49l0-12.1c0-0.4,0-0.9,0-1.8L86,23.5z"/>
<text transform="matrix(1 0 0 1 124 81.2487)" class="st0 st1 st2">İTÜ</text>
<text transform="matrix(1 0 0 1 209 81.2484)" class="st0 st3 st2">KOVAN</text>
</svg>
