<?xml version="1.0" encoding="utf-8"?>
<!-- Generator: Adobe Illustrator 19.2.1, SVG Export Plug-In . SVG Version: 6.00 Build 0)  -->
<svg version="1.1"
	 id="katman_1" xmlns:cc="http://creativecommons.org/ns#" xmlns:dc="http://purl.org/dc/elements/1.1/" xmlns:rdf="http://www.w3.org/1999/02/22-rdf-syntax-ns#"
	 xmlns="http://www.w3.org/2000/svg" xmlns:xlink="http://www.w3.org/1999/xlink" x="0px" y="0px" viewBox="0 0 62 34"
	 style="enable-background:new 0 0 62 34;" xml:space="preserve">
<style type="text/css">
	.st0{fill:#FFFFFF;}
</style>
<path class="st0" d="M35.3,30.6c0.1,0.1,0.3,0.2,0.5,0.3l3.3,1.9l7.6-4.4l0-4.4c0-0.1,0-0.3,0-0.6l0-3.8l-7.3-4.2l-8,4.6
	c0,2.7,0,3.6,0,3.9l0,0l0,4.6L35.3,30.6L35.3,30.6z"/>
<path class="st0" d="M27.2,17.8L27.2,17.8l-4.5-2.6l-7.5,4.3l0,4.4l0,4.4l3.8,2.2l0,0c0.1,0.1,0.3,0.2,0.5,0.3l3.3,1.9l7.6-4.4v-8.7
	C28.5,18.6,27.6,18.1,27.2,17.8z"/>
<path class="st0" d="M38.8,5.6l-7.6-4.4l-7.6,4.4l0,4.4l0,4.2l7.4,4.3l7.8-4.5l0-4c0-0.1,0-0.3,0-0.6L38.8,5.6z"/>
</svg>
